<?xml version="1.0" encoding="utf-8"?>
<svg version="1.1" id="Capa_1" xmlns="http://www.w3.org/2000/svg" xmlns:xlink="http://www.w3.org/1999/xlink" x="0px" y="0px"
	 viewBox="0 0 437.8 437.8" style="enable-background:new 0 0 437.8 437.8;" xml:space="preserve">
<style type="text/css">
	.st0{fill:#010002;}
</style>
<g>
	<g>
		<path class="st0" d="M413,196.3c0.1-12.4-6.1-28.7-36.6-35.9c-31.5-7.4-67.6,15.3-84.8-22.5c-20-44,35.7-100.2-21.9-132.6
			c-7.9-4.4-18.3-7.7-27-3.2c-6.7,3.5-10.5,10.6-11.9,21c-11.8,85.6-46.1,107.7-63,119.2c-28.6,19.4-52,45.2-81.3,63.4l-61.5,0.1
			c0,63.4,0,127.3,0,190.8c44.2,0,72,4.8,113.5,19.8c44.7,16.1,154.6,37.6,196.3,2.7c13.3-11.1,20.8-28.1,23.6-44.9
			c12.6-5,24-13.6,28.9-26.7c5.4-14.5,1.3-29.3-2-37.3c12.9-7.1,20.9-16.6,23.9-28.3c4.8-19.3-5-34.1-14.3-49.5
			C402.5,226.4,412.8,211.7,413,196.3z"/>
	</g>
</g>
</svg>
