<?xml version="1.0" encoding="utf-8"?>
<!-- Generator: Adobe Illustrator 24.0.0, SVG Export Plug-In . SVG Version: 6.00 Build 0)  -->
<svg version="1.1" id="Capa_1" xmlns="http://www.w3.org/2000/svg" xmlns:xlink="http://www.w3.org/1999/xlink" x="0px" y="0px"
	 viewBox="0 0 437.8 437.8" style="enable-background:new 0 0 437.8 437.8;" xml:space="preserve">
<style type="text/css">
	.st0{fill:#010002;}
</style>
<g>
	<path class="st0" d="M43,205.4c-9.2-15.5-19.1-30.2-14.3-49.5c3-11.6,11-21.1,23.9-28.3c-3.3-8-7.4-22.8-2-37.3
		c4.9-13.1,16.3-21.7,28.9-26.7c2.8-16.8,10.3-33.8,23.6-44.9c41.8-34.9,151.6-13.4,196.3,2.7c41.5,14.9,69.4,19.8,113.5,19.8
		c0,63.4,0,127.3,0,190.8l-61.5,0.1c-29.3,18.2-52.6,44-81.3,63.4c-17,11.5-51.2,33.6-63,119.2c-1.4,10.5-5.2,17.5-11.9,21
		c-8.7,4.5-19.1,1.2-27-3.2c-57.6-32.3-2-88.5-21.9-132.6c-17.2-37.8-53.3-15.1-84.8-22.5C31,270.3,24.8,254,24.9,241.6
		C25,226.2,35.3,211.5,43,205.4z"/>
</g>
</svg>
