<?xml version="1.0" standalone="no"?>
<!DOCTYPE svg PUBLIC "-//W3C//DTD SVG 20010904//EN"
 "http://www.w3.org/TR/2001/REC-SVG-20010904/DTD/svg10.dtd">
<svg version="1.0" xmlns="http://www.w3.org/2000/svg"
 width="1500.000000pt" height="350.000000pt" viewBox="0 0 1500.000000 350.000000"
 preserveAspectRatio="xMidYMid meet">
<metadata>
Created by potrace 1.12, written by Peter Selinger 2001-2015
</metadata>
<g transform="translate(0.000000,350.000000) scale(0.100000,-0.100000)"
fill="#000000" stroke="none">
<path d="M1551 3100 c-174 -22 -385 -99 -520 -189 -306 -204 -498 -489 -577
-856 -24 -114 -24 -388 0 -509 51 -258 164 -478 341 -664 174 -184 360 -294
605 -358 118 -32 342 -43 471 -25 543 79 966 497 1076 1066 23 121 23 348 -1
470 -95 480 -421 863 -858 1009 -158 53 -378 75 -537 56z m354 -464 c305 -83
546 -346 611 -666 27 -133 16 -316 -25 -440 -77 -228 -218 -399 -411 -499
-106 -55 -186 -79 -294 -91 -420 -47 -802 235 -903 668 -25 110 -23 300 6 407
86 321 337 565 650 631 84 17 284 12 366 -10z"/>
<path d="M1390 2074 c-124 -90 -263 -191 -309 -224 -46 -34 -82 -63 -80 -64 2
-2 142 -103 312 -224 l307 -221 0 450 c0 247 -1 449 -2 448 -2 0 -104 -75
-228 -165z"/>
<path d="M2060 2103 c-102 -74 -236 -171 -297 -215 -62 -45 -117 -86 -122 -92
-7 -8 19 -32 82 -77 51 -36 190 -136 310 -222 l217 -157 0 450 c0 248 -1 450
-2 449 -2 0 -86 -61 -188 -136z"/>
<path d="M10131 3084 c-125 -20 -291 -74 -410 -135 -250 -127 -485 -371 -600
-620 -93 -203 -126 -354 -126 -579 0 -225 33 -376 126 -579 115 -249 350 -493
600 -620 390 -199 848 -199 1238 0 250 127 485 371 600 620 93 203 126 354
126 579 0 225 -33 376 -126 579 -115 249 -350 493 -600 620 -253 129 -551 177
-828 135z m79 -1334 l0 -610 -230 0 -230 0 0 610 0 610 230 0 230 0 0 -610z
m720 0 l0 -610 -230 0 -230 0 0 610 0 610 230 0 230 0 0 -610z"/>
<path d="M13120 3055 c-296 -38 -531 -153 -741 -364 -194 -194 -308 -406 -366
-681 -24 -118 -24 -389 1 -514 91 -462 410 -835 838 -985 138 -48 244 -65 408
-65 211 0 363 35 545 126 139 69 213 124 335 247 196 197 312 420 361 690 24
132 25 354 3 472 -94 509 -435 895 -914 1035 -73 21 -304 56 -350 53 -8 -1
-62 -7 -120 -14z m338 -465 c328 -90 574 -365 623 -700 16 -109 6 -284 -20
-375 -110 -375 -433 -625 -806 -625 -501 0 -893 463 -826 975 51 385 348 693
719 744 86 12 228 3 310 -19z"/>
<path d="M12700 1745 c0 -245 3 -445 6 -445 3 0 143 99 312 221 l307 221 3
-221 c1 -122 5 -221 7 -221 8 0 604 430 610 440 3 5 -32 36 -77 69 -301 218
-529 381 -533 381 -3 0 -5 -99 -5 -220 0 -121 -2 -220 -5 -220 -2 0 -44 29
-92 64 -312 226 -523 376 -528 376 -3 0 -5 -200 -5 -445z"/>
<path d="M4440 3034 c-14 -2 -59 -9 -100 -15 -159 -23 -346 -99 -500 -202 -96
-64 -263 -231 -327 -327 -150 -224 -217 -444 -217 -710 0 -348 121 -639 368
-886 247 -247 538 -368 886 -368 348 0 639 121 886 368 247 247 368 538 368
886 0 348 -121 639 -368 886 -186 186 -401 302 -650 349 -80 16 -298 28 -346
19z m235 -165 c442 -54 807 -365 929 -791 165 -578 -175 -1186 -756 -1352
-578 -165 -1186 175 -1352 756 -166 579 176 1189 759 1353 152 42 272 52 420
34z"/>
<path d="M4095 2238 c-3 -7 -4 -218 -3 -468 l3 -455 455 0 455 0 0 465 0 465
-453 3 c-357 2 -454 0 -457 -10z"/>
<path d="M6288 2956 c-57 -20 -85 -42 -116 -88 l-27 -42 0 -1101 0 -1102 30
-48 c21 -35 45 -56 80 -74 l49 -26 1086 0 c1039 0 1086 1 1120 19 19 10 50 32
68 49 64 61 62 21 62 1182 0 1168 3 1108 -67 1178 -70 70 -9 67 -1187 67 -859
-1 -1068 -3 -1098 -14z m855 -697 c78 -45 162 -94 187 -109 25 -15 108 -63
185 -107 399 -229 461 -266 473 -281 19 -25 14 -66 -10 -89 -13 -11 -66 -45
-118 -75 -52 -31 -165 -96 -250 -145 -423 -246 -615 -353 -635 -353 -12 0 -31
9 -43 20 l-22 21 0 579 c0 567 0 580 20 600 11 11 32 20 46 20 14 0 89 -36
167 -81z"/>
</g>
</svg>
