<?xml version="1.0" encoding="UTF-8" standalone="no"?>
<!-- Created with Inkscape (http://www.inkscape.org/) -->

<svg
   xmlns:dc="http://purl.org/dc/elements/1.1/"
   xmlns:cc="http://creativecommons.org/ns#"
   xmlns:rdf="http://www.w3.org/1999/02/22-rdf-syntax-ns#"
   xmlns:svg="http://www.w3.org/2000/svg"
   xmlns="http://www.w3.org/2000/svg"
   xmlns:sodipodi="http://sodipodi.sourceforge.net/DTD/sodipodi-0.dtd"
   xmlns:inkscape="http://www.inkscape.org/namespaces/inkscape"
   inkscape:version="0.91 r13725"
   version="1.1"
   id="svg151382"
   viewBox="0 0 291.95935 29.22611"
   height="8.2482576mm"
   width="82.397415mm"
   sodipodi:docname="ondulating_arrow.svg">
  <sodipodi:namedview
     inkscape:window-maximized="1"
     inkscape:window-y="-9"
     inkscape:window-x="-9"
     inkscape:window-height="1005"
     inkscape:window-width="1920"
     showgrid="false"
     inkscape:current-layer="layer1"
     inkscape:document-units="px"
     inkscape:cy="138.22378"
     inkscape:cx="262.93984"
     inkscape:zoom="0.98994949"
     inkscape:pageshadow="2"
     inkscape:pageopacity="0.0"
     borderopacity="1.0"
     bordercolor="#666666"
     pagecolor="#ffffff"
     id="base"
     fit-margin-top="0"
     fit-margin-left="0"
     fit-margin-right="0"
     fit-margin-bottom="0" />
  <defs
     id="defs151384" />
  <metadata
     id="metadata151387">
    <rdf:RDF>
      <cc:Work
         rdf:about="">
        <dc:format>image/svg+xml</dc:format>
        <dc:type
           rdf:resource="http://purl.org/dc/dcmitype/StillImage" />
        <dc:title></dc:title>
      </cc:Work>
    </rdf:RDF>
  </metadata>
  <g
     inkscape:label="Layer 1"
     inkscape:groupmode="layer"
     id="layer1"
     transform="translate(-261.42737,-503.17027)">
    <path
       id="path152731"
       title="sin(x)"
       d="m 261.48687,511.06638 c 3.55685,-0.28307 7.1137,-0.10661 10.67056,0.50453 3.55685,0.61113 7.1137,1.658 10.67055,3.00605 3.55685,1.34806 7.1137,2.99591 10.67055,4.73394 3.55685,1.73803 7.1137,3.56278 10.67056,5.24348 3.55685,1.6807 7.1137,3.21272 10.67055,4.40354 3.55685,1.19083 7.1137,2.03583 10.67055,2.43031 3.55685,0.39447 7.11371,0.33499 10.67056,-0.16841 3.55685,-0.5034 7.1137,-1.45206 10.67055,-2.72378 3.55685,-1.27171 7.1137,-2.8654 10.67055,-4.57814 3.55685,-1.71275 7.11371,-3.54131 10.67056,-5.25428 3.55685,-1.71297 7.1137,-3.3058 10.67055,-4.57815 3.55685,-1.27234 7.1137,-2.2195 10.67055,-2.72377 3.55685,-0.50427 7.11371,-0.562 10.67056,-0.16841 3.55685,0.39359 7.1137,1.24015 10.67055,2.4303 3.55685,1.19016 7.1137,2.72313 10.67055,4.40355 3.55686,1.68042 7.11371,3.50527 10.67056,5.24348 3.55685,1.7382 7.1137,3.38529 10.67055,4.73393 3.55685,1.34864 7.1137,2.39407 10.67055,3.00606 3.55686,0.61199 7.11371,0.7867 10.67056,0.50453 3.55685,-0.28217 7.1137,-1.02314 10.67055,-2.12684 3.55685,-1.1037 7.1137,-2.56966 10.67055,-4.21085 3.55686,-1.64118 7.11371,-3.45484 10.67056,-5.21113 3.55685,-1.75629 7.1137,-3.45089 10.67055,-4.87028 3.55685,-1.41939 7.1137,-2.55879 10.67056,-3.27598 3.55685,-0.7172 7.1137,-1.00817 10.67055,-0.83859"
       style="color:#000000;clip-rule:nonzero;display:inline;overflow:visible;visibility:visible;opacity:1;isolation:auto;mix-blend-mode:normal;color-interpolation:sRGB;color-interpolation-filters:linearRGB;solid-color:#000000;solid-opacity:1;fill:none;fill-opacity:1;fill-rule:nonzero;stroke:#000000;stroke-width:1.5;stroke-linecap:butt;stroke-linejoin:miter;stroke-miterlimit:4;stroke-dasharray:none;stroke-dashoffset:0;stroke-opacity:1;marker:none;color-rendering:auto;image-rendering:auto;shape-rendering:auto;text-rendering:auto;enable-background:accumulate"
       inkscape:connector-curvature="0"
       sodipodi:nodetypes="cssssssssssssssssssssssssc" />
    <path
       style="color:#000000;clip-rule:nonzero;display:inline;overflow:visible;visibility:visible;opacity:1;isolation:auto;mix-blend-mode:normal;color-interpolation:sRGB;color-interpolation-filters:linearRGB;solid-color:#000000;solid-opacity:1;fill:#000000;fill-opacity:1;fill-rule:nonzero;stroke:#000000;stroke-width:1;stroke-linecap:round;stroke-linejoin:round;stroke-miterlimit:4;stroke-dasharray:none;stroke-dashoffset:0;stroke-opacity:1;marker:none;color-rendering:auto;image-rendering:auto;shape-rendering:auto;text-rendering:auto;enable-background:accumulate"
       inkscape:transform-center-x="-4.8288633"
       d="m 552.88686,512.00507 -28.97318,6.5491 0,-14.88392 z"
       id="path152738"
       inkscape:connector-curvature="0"
       sodipodi:nodetypes="cccc" />
  </g>
</svg>
