<?xml version="1.0" encoding="UTF-8" standalone="no"?>
<svg
   xmlns:svg="http://www.w3.org/2000/svg"
   xmlns="http://www.w3.org/2000/svg"
   width="7mm"
   height="11.5mm"
   id="quaver1"
   version="1.1">
  <title
          id="title3">quaver</title>
    <defs
     id="defs8074" />
  <path 
      id="path8070"
         d="m 18.331449,9.2031715 c -2.04,-2.64 -1.52,-1.68 -4.72,-8.79999996 l -0.6,0 0,31.00000046 c -0.84,-0.84 -2.08,-1.24 -3.6399997,-1.24 -4.2,0 -9.11999998,3.48 -9.11999998,7 0,2.2 1.91999998,3.44 4.47999998,3.44 4.2,0 9.1999997,-3.36 9.1999997,-6.96 l 0,-23.2 c 1.2,0.16 1.44,0.32 3.32,1.6 3.24,2.28 4.88,4.84 4.88,7.64 0,2.44 -0.4,4.56 -1.16,6.36 -0.16,0.36 -0.24,0.6 -0.24,0.76 0,0.2 0.12,0.32 0.32,0.32 0.92,0 2.44,-4.8 2.44,-7.92 0,-1.88 -0.56,-3.68 -1.64,-5.44 -0.16,-0.24 -1.32,-1.76 -3.52,-4.5600005 z" />  
</svg>
