<?xml version="1.0" standalone="no"?>
<!DOCTYPE svg PUBLIC "-//W3C//DTD SVG 20010904//EN"
 "http://www.w3.org/TR/2001/REC-SVG-20010904/DTD/svg10.dtd">
<svg version="1.0" xmlns="http://www.w3.org/2000/svg"
 width="783.000000pt" height="1098.000000pt" viewBox="0 0 783.000000 1098.000000"
 preserveAspectRatio="xMidYMid meet">
<metadata>
Created by potrace 1.13, written by Peter Selinger 2001-2015
</metadata>
<g transform="translate(0.000000,1098.000000) scale(0.100000,-0.100000)"
fill="#000000" stroke="none">
<path d="M353 10965 c-158 -43 -277 -156 -324 -306 -19 -59 -19 -184 -19
-5169 0 -4985 0 -5110 19 -5169 49 -157 186 -280 346 -311 44 -8 984 -10 3575
-8 l3515 3 57 23 c126 51 231 160 275 284 17 51 18 233 18 5178 0 4945 -1
5127 -18 5178 -44 124 -149 233 -275 284 l-57 23 -3530 2 c-3015 1 -3538 0
-3582 -12z m7150 -73 c111 -45 195 -133 234 -246 17 -49 18 -269 18 -5156 0
-4887 -1 -5107 -18 -5156 -39 -113 -123 -201 -234 -246 l-58 -23 -3495 -3
c-2579 -2 -3511 0 -3555 8 -150 29 -266 133 -309 279 -15 50 -16 496 -16 5141
0 4617 1 5091 16 5141 40 136 149 240 289 275 39 10 791 12 3560 11 l3510 -2
58 -23z"/>
<path d="M3832 10590 c-134 -82 -68 -292 87 -277 109 11 170 121 119 216 -41
76 -135 104 -206 61z m153 -40 c99 -93 -5 -253 -127 -196 -84 40 -91 166 -10
211 37 21 107 14 137 -15z"/>
<path d="M515 9938 c-3 -7 -4 -1988 -3 -4403 l3 -4390 3385 0 3385 0 0 4400 0
4400 -3383 3 c-2701 2 -3384 0 -3387 -10z m6715 -4393 l0 -4345 -3330 0 -3330
0 0 4345 0 4345 3330 0 3330 0 0 -4345z"/>
<path d="M3822 866 c-172 -56 -251 -251 -165 -407 56 -104 152 -155 272 -147
78 6 131 31 182 85 61 63 74 97 74 193 0 71 -4 93 -25 133 -61 120 -213 184
-338 143z m197 -45 c180 -92 188 -345 14 -448 -41 -24 -59 -28 -123 -28 -84 0
-131 18 -181 68 -102 102 -102 255 0 357 79 79 195 99 290 51z"/>
<path d="M3818 699 c-15 -8 -18 -25 -18 -102 0 -59 4 -97 12 -105 16 -16 190
-16 206 0 19 19 16 183 -4 202 -18 19 -167 22 -196 5z m180 -106 l3 -83 -86 0
-85 0 0 78 c0 43 3 82 7 86 4 4 41 5 83 4 l75 -3 3 -82z"/>
</g>
</svg>
